<svg width="100" height="100" viewBox="0 0 100 100" fill="none" xmlns="http://www.w3.org/2000/svg">
<path d="M50 62.3972C56.7917 62.3972 62.7917 64.789 67.6667 67.9168C72.1667 70.8606 75 77.4842 75 84.6597V94.595H25V84.721C25 77.4842 27.8333 70.8606 32.3333 67.9781C37.2083 64.789 43.2083 62.3972 50 62.3972ZM16.6667 63.9304C21.25 63.9304 25 58.4108 25 51.6646C25 44.9184 21.25 39.3988 16.6667 39.3988C12.0833 39.3988 8.33333 44.9184 8.33333 51.6646C8.33333 58.4108 12.0833 63.9304 16.6667 63.9304ZM21.375 70.6766C19.8333 70.3087 18.2917 70.0633 16.6667 70.0633C12.5417 70.0633 8.625 71.3513 5.08333 73.6204C2 75.583 0 79.9987 0 84.9663V94.595H18.75V84.721C18.75 79.6307 19.7083 74.847 21.375 70.6766ZM83.3333 63.9304C87.9167 63.9304 91.6667 58.4108 91.6667 51.6646C91.6667 44.9184 87.9167 39.3988 83.3333 39.3988C78.75 39.3988 75 44.9184 75 51.6646C75 58.4108 78.75 63.9304 83.3333 63.9304ZM100 84.9663C100 79.9987 98 75.583 94.9167 73.6204C91.375 71.3513 87.4583 70.0633 83.3333 70.0633C81.7083 70.0633 80.1667 70.3087 78.625 70.6766C80.2917 74.847 81.25 79.6307 81.25 84.721V94.595H100V84.9663ZM50 21C56.9167 21 62.5 29.2181 62.5 39.3988C62.5 49.5794 56.9167 57.7975 50 57.7975C43.0833 57.7975 37.5 49.5794 37.5 39.3988C37.5 29.2181 43.0833 21 50 21Z" fill="#505050"/>
</svg>
