<svg width="100" height="74" viewBox="0 0 100 74" fill="none" xmlns="http://www.w3.org/2000/svg">
<path d="M50 41.3972C56.7917 41.3972 62.7917 43.789 67.6667 46.9168C72.1667 49.8606 75 56.4842 75 63.6597V73.595H25V63.721C25 56.4842 27.8333 49.8606 32.3333 46.9781C37.2083 43.789 43.2083 41.3972 50 41.3972ZM16.6667 42.9304C21.25 42.9304 25 37.4108 25 30.6646C25 23.9184 21.25 18.3988 16.6667 18.3988C12.0833 18.3988 8.33333 23.9184 8.33333 30.6646C8.33333 37.4108 12.0833 42.9304 16.6667 42.9304ZM21.375 49.6766C19.8333 49.3087 18.2917 49.0633 16.6667 49.0633C12.5417 49.0633 8.625 50.3512 5.08333 52.6204C2 54.583 0 58.9987 0 63.9663V73.595H18.75V63.721C18.75 58.6307 19.7083 53.847 21.375 49.6766ZM83.3333 42.9304C87.9167 42.9304 91.6667 37.4108 91.6667 30.6646C91.6667 23.9184 87.9167 18.3988 83.3333 18.3988C78.75 18.3988 75 23.9184 75 30.6646C75 37.4108 78.75 42.9304 83.3333 42.9304ZM100 63.9663C100 58.9987 98 54.583 94.9167 52.6204C91.375 50.3512 87.4583 49.0633 83.3333 49.0633C81.7083 49.0633 80.1667 49.3087 78.625 49.6766C80.2917 53.847 81.25 58.6307 81.25 63.721V73.595H100V63.9663ZM50 0C56.9167 0 62.5 8.21811 62.5 18.3988C62.5 28.5794 56.9167 36.7975 50 36.7975C43.0833 36.7975 37.5 28.5794 37.5 18.3988C37.5 8.21811 43.0833 0 50 0Z" fill="#505050"/>
</svg>
