<svg width="80" height="76" viewBox="0 0 80 76" fill="none" xmlns="http://www.w3.org/2000/svg">
<path d="M15.75 34.25H0.75V75.5H15.75V34.25Z" fill="#505050"/>
<path d="M57 5.1875C59.4375 2.3375 63.225 0.5 67.125 0.5C74.0625 0.5 79.5 5.9375 79.5 12.875C79.5 21.3875 68.5875 31.25 57 41.75C45.4125 31.2125 34.5 21.35 34.5 12.875C34.5 5.9375 39.9375 0.5 46.875 0.5C50.775 0.5 54.5625 2.3375 57 5.1875Z" fill="#505050"/>
<path d="M72 56.75H45.75L37.9125 54.0125L39.15 50.4875L45.75 53H56.325C58.7625 53 60.75 51.0125 60.75 48.575C60.75 46.7375 59.5875 45.0875 57.8625 44.4125L30.6375 34.25H23.25V68.075L49.5 75.5L79.5375 64.25C79.5 60.125 76.1625 56.75 72 56.75Z" fill="#505050"/>
</svg>
