<svg width="90" height="90" viewBox="0 0 90 90" fill="none" xmlns="http://www.w3.org/2000/svg">
<g clip-path="url(#clip0_688_56)">
<path d="M18.75 41.25H3.75V82.5H18.75V41.25Z" fill="#505050"/>
<path d="M60 12.1875C62.4375 9.3375 66.225 7.5 70.125 7.5C77.0625 7.5 82.5 12.9375 82.5 19.875C82.5 28.3875 71.5875 38.25 60 48.75C48.4125 38.2125 37.5 28.35 37.5 19.875C37.5 12.9375 42.9375 7.5 49.875 7.5C53.775 7.5 57.5625 9.3375 60 12.1875Z" fill="#505050"/>
<path d="M75 63.75H48.75L40.9125 61.0125L42.15 57.4875L48.75 60H59.325C61.7625 60 63.75 58.0125 63.75 55.575C63.75 53.7375 62.5875 52.0875 60.8625 51.4125L33.6375 41.25H26.25V75.075L52.5 82.5L82.5375 71.25C82.5 67.125 79.1625 63.75 75 63.75Z" fill="#505050"/>
</g>
<defs>
<clipPath id="clip0_688_56">
<rect width="90" height="90" fill="white"/>
</clipPath>
</defs>
</svg>
