<svg width="90" height="90" viewBox="0 0 90 90" fill="none" xmlns="http://www.w3.org/2000/svg">
<g clip-path="url(#clip0_688_49)">
<path d="M33.75 78.75C33.75 80.625 35.25 82.5 37.5 82.5H52.5C54.75 82.5 56.25 80.625 56.25 78.75V75H33.75V78.75ZM45 7.5C30.375 7.5 18.75 19.125 18.75 33.75C18.75 42.75 23.25 50.625 30 55.125V63.75C30 65.625 31.5 67.5 33.75 67.5H56.25C58.5 67.5 60 65.625 60 63.75V55.125C66.75 50.25 71.25 42.375 71.25 33.75C71.25 19.125 59.625 7.5 45 7.5Z" fill="#505050"/>
</g>
<defs>
<clipPath id="clip0_688_49">
<rect width="90" height="90" fill="white"/>
</clipPath>
</defs>
</svg>
